<mxfile host="app.diagrams.net" agent="Mozilla/5.0 (Windows NT 10.0; Win64; x64) AppleWebKit/537.36 (KHTML, like Gecko) Chrome/129.0.0.0 Safari/537.36" version="24.7.17">
  <diagram name="Página-1" id="vz3QA7JBKZf0fCl47bo0">
    <mxGraphModel grid="1" page="1" gridSize="10" guides="1" tooltips="1" connect="1" arrows="1" fold="1" pageScale="1" pageWidth="827" pageHeight="1169" math="0" shadow="0">
      <root>
        <mxCell id="0" />
        <mxCell id="1" parent="0" />
        <mxCell id="sxR0apj6VvdE5SKkPq7c-1" value="Usuario &lt;br&gt;administrador" style="shape=umlActor;verticalLabelPosition=bottom;verticalAlign=top;html=1;outlineConnect=0;fillColor=#B9E0A5;" vertex="1" parent="1">
          <mxGeometry x="90" y="230" width="30" height="60" as="geometry" />
        </mxCell>
        <mxCell id="sxR0apj6VvdE5SKkPq7c-2" value="" style="swimlane;startSize=0;" vertex="1" parent="1">
          <mxGeometry x="150" y="50" width="420" height="440" as="geometry" />
        </mxCell>
        <mxCell id="sxR0apj6VvdE5SKkPq7c-12" style="edgeStyle=orthogonalEdgeStyle;rounded=0;orthogonalLoop=1;jettySize=auto;html=1;exitX=1;exitY=0.5;exitDx=0;exitDy=0;" edge="1" parent="sxR0apj6VvdE5SKkPq7c-2" source="sxR0apj6VvdE5SKkPq7c-3" target="sxR0apj6VvdE5SKkPq7c-5">
          <mxGeometry relative="1" as="geometry" />
        </mxCell>
        <mxCell id="sxR0apj6VvdE5SKkPq7c-13" style="rounded=0;orthogonalLoop=1;jettySize=auto;html=1;exitX=1;exitY=1;exitDx=0;exitDy=0;entryX=0;entryY=0.5;entryDx=0;entryDy=0;" edge="1" parent="sxR0apj6VvdE5SKkPq7c-2" source="sxR0apj6VvdE5SKkPq7c-3" target="sxR0apj6VvdE5SKkPq7c-6">
          <mxGeometry relative="1" as="geometry" />
        </mxCell>
        <mxCell id="sxR0apj6VvdE5SKkPq7c-3" value="Administración de reportes&amp;nbsp;" style="ellipse;whiteSpace=wrap;html=1;fillColor=#B9E0A5;" vertex="1" parent="sxR0apj6VvdE5SKkPq7c-2">
          <mxGeometry x="50" y="180" width="120" height="80" as="geometry" />
        </mxCell>
        <mxCell id="sxR0apj6VvdE5SKkPq7c-4" value="Creación de reportes" style="ellipse;whiteSpace=wrap;html=1;fillColor=#E6D0DE;" vertex="1" parent="sxR0apj6VvdE5SKkPq7c-2">
          <mxGeometry x="204" y="40" width="120" height="80" as="geometry" />
        </mxCell>
        <mxCell id="sxR0apj6VvdE5SKkPq7c-5" value="Proveer planillas para informes" style="ellipse;whiteSpace=wrap;html=1;fillColor=#E6D0DE;" vertex="1" parent="sxR0apj6VvdE5SKkPq7c-2">
          <mxGeometry x="204" y="180" width="120" height="80" as="geometry" />
        </mxCell>
        <mxCell id="sxR0apj6VvdE5SKkPq7c-6" value="Creación de alarma para niveles de stock" style="ellipse;whiteSpace=wrap;html=1;fillColor=#B9E0A5;" vertex="1" parent="sxR0apj6VvdE5SKkPq7c-2">
          <mxGeometry x="204" y="320" width="120" height="80" as="geometry" />
        </mxCell>
        <mxCell id="sxR0apj6VvdE5SKkPq7c-11" style="rounded=0;orthogonalLoop=1;jettySize=auto;html=1;exitX=1;exitY=0;exitDx=0;exitDy=0;entryX=0.006;entryY=0.594;entryDx=0;entryDy=0;entryPerimeter=0;" edge="1" parent="sxR0apj6VvdE5SKkPq7c-2" source="sxR0apj6VvdE5SKkPq7c-3" target="sxR0apj6VvdE5SKkPq7c-4">
          <mxGeometry relative="1" as="geometry" />
        </mxCell>
        <mxCell id="sxR0apj6VvdE5SKkPq7c-15" style="edgeStyle=orthogonalEdgeStyle;rounded=0;orthogonalLoop=1;jettySize=auto;html=1;exitX=0.5;exitY=0.5;exitDx=0;exitDy=0;exitPerimeter=0;entryX=1;entryY=0.5;entryDx=0;entryDy=0;" edge="1" parent="1" source="sxR0apj6VvdE5SKkPq7c-7" target="sxR0apj6VvdE5SKkPq7c-5">
          <mxGeometry relative="1" as="geometry" />
        </mxCell>
        <mxCell id="sxR0apj6VvdE5SKkPq7c-7" value="Sistema" style="shape=umlActor;verticalLabelPosition=bottom;verticalAlign=top;html=1;outlineConnect=0;fillColor=#E6D0DE;" vertex="1" parent="1">
          <mxGeometry x="610" y="240" width="30" height="60" as="geometry" />
        </mxCell>
        <mxCell id="sxR0apj6VvdE5SKkPq7c-10" style="rounded=0;orthogonalLoop=1;jettySize=auto;html=1;exitX=0.5;exitY=0.5;exitDx=0;exitDy=0;exitPerimeter=0;fillColor=#B9E0A5;" edge="1" parent="1" source="sxR0apj6VvdE5SKkPq7c-1">
          <mxGeometry relative="1" as="geometry">
            <mxPoint x="200" y="260" as="targetPoint" />
          </mxGeometry>
        </mxCell>
        <mxCell id="sxR0apj6VvdE5SKkPq7c-14" style="rounded=0;orthogonalLoop=1;jettySize=auto;html=1;exitX=0.5;exitY=0.5;exitDx=0;exitDy=0;exitPerimeter=0;entryX=0.932;entryY=0.747;entryDx=0;entryDy=0;entryPerimeter=0;" edge="1" parent="1" source="sxR0apj6VvdE5SKkPq7c-7" target="sxR0apj6VvdE5SKkPq7c-4">
          <mxGeometry relative="1" as="geometry" />
        </mxCell>
        <mxCell id="sxR0apj6VvdE5SKkPq7c-16" value="&lt;font style=&quot;font-size: 24px;&quot;&gt;Reporte y análisis&lt;/font&gt;" style="rounded=0;whiteSpace=wrap;html=1;" vertex="1" parent="1">
          <mxGeometry x="150" y="-10" width="420" height="60" as="geometry" />
        </mxCell>
      </root>
    </mxGraphModel>
  </diagram>
</mxfile>
